# xmcd
#
# Track frame offsets:
#	150
#	19113
#	31387
#	46913
#	64673
#	89366
#	106003
#	122119
#	136424
#	148275
#
# Disc length: 2244 seconds
#
# Revision: 1
# Processed by: cddbd v1.4PL0 Copyright (c) Steve Scherf et al.
# Submitted via: audiograbber 1.81.02
#
DISCID=8708c20a
DTITLE=Hal - Gemini CD2
DYEAR=2001
DGENRE=Ambient
TTITLE0=Kemija
TTITLE1=Reci mi
TTITLE2=Donne di Toscana
TTITLE3=Je pars avec toi
TTITLE4=La Mia Fata
TTITLE5=Nenia
TTITLE6=Il tempo per domarsi il coure
TTITLE7=Zvuk je magija
TTITLE8=Aika Muuttuu
TTITLE9=Ambiental
EXTD=
EXTT0=
EXTT1=
EXTT2=
EXTT3=
EXTT4=
EXTT5=
EXTT6=
EXTT7=
EXTT8=
EXTT9=
PLAYORDER=
